<svg width="49" height="49" viewBox="0 0 49 49" fill="none" xmlns="http://www.w3.org/2000/svg">
<path fill-rule="evenodd" clip-rule="evenodd" d="M24.1424 6.17334C19.2722 6.17334 18.6625 6.19366 16.7499 6.28093C14.8408 6.3682 13.5365 6.67183 12.3961 7.11534C11.2007 7.56482 10.1164 8.27012 9.21984 9.18343C8.30799 10.079 7.60225 11.1625 7.15174 12.3585C6.71063 13.4989 6.40579 14.8043 6.31853 16.7135C6.23246 18.6249 6.21094 19.2334 6.21094 24.1048C6.21094 28.9762 6.23126 29.5847 6.31853 31.4973C6.40579 33.4064 6.70943 34.7107 7.15294 35.8511C7.60242 37.0465 8.30772 38.1308 9.22103 39.0274C10.1166 39.9392 11.2001 40.6449 12.3961 41.0955C13.5365 41.5378 14.8408 41.8414 16.7499 41.9287C18.6625 42.0159 19.2722 42.0363 24.1424 42.0363C29.0126 42.0363 29.6222 42.0159 31.5349 41.9287C33.444 41.8414 34.7483 41.5378 35.8887 41.0943C37.0841 40.6448 38.1684 39.9395 39.065 39.0262C39.9768 38.1306 40.6825 37.0471 41.133 35.8511C41.5754 34.7107 41.879 33.4064 41.9663 31.4973C42.0535 29.5847 42.0739 28.975 42.0739 24.1048C42.0739 19.2346 42.0535 18.6249 41.9663 16.7123C41.879 14.8032 41.5754 13.4989 41.1319 12.3585C40.6817 11.1619 39.9759 10.078 39.0638 9.18224C38.1682 8.27039 37.0847 7.56465 35.8887 7.11414C34.7483 6.67303 33.4428 6.3682 31.5337 6.28093C29.6222 6.19486 29.0138 6.17334 24.1424 6.17334ZM24.1424 9.40459C28.9301 9.40459 29.4979 9.42252 31.3891 9.50859C33.1368 9.58868 34.086 9.87917 34.7184 10.1266C35.5552 10.4506 36.1529 10.8403 36.7805 11.4667C37.4081 12.0943 37.7966 12.692 38.1206 13.5288C38.3668 14.1612 38.6585 15.1104 38.7386 16.8581C38.8247 18.7493 38.8426 19.3171 38.8426 24.1048C38.8426 28.8925 38.8247 29.4603 38.7386 31.3515C38.6585 33.0992 38.368 34.0484 38.1206 34.6808C37.8336 35.4596 37.3757 36.1643 36.7805 36.7429C36.202 37.3382 35.4973 37.7961 34.7184 38.083C34.086 38.3292 33.1368 38.6209 31.3891 38.701C29.4979 38.7871 28.9313 38.805 24.1424 38.805C19.3535 38.805 18.7869 38.7871 16.8957 38.701C15.148 38.6209 14.1988 38.3304 13.5664 38.083C12.7875 37.796 12.0829 37.3381 11.5043 36.7429C10.9092 36.1642 10.4513 35.4596 10.1642 34.6808C9.91797 34.0484 9.62628 33.0992 9.54619 31.3515C9.46012 29.4603 9.44219 28.8925 9.44219 24.1048C9.44219 19.3171 9.46012 18.7493 9.54619 16.8581C9.62628 15.1104 9.91677 14.1612 10.1642 13.5288C10.4882 12.692 10.8779 12.0943 11.5043 11.4667C12.0828 10.8714 12.7875 10.4135 13.5664 10.1266C14.1988 9.88037 15.148 9.58868 16.8957 9.50859C18.7869 9.42252 19.3547 9.40459 24.1424 9.40459Z" fill="white"/>
<path fill-rule="evenodd" clip-rule="evenodd" d="M24.1416 30.0874C23.3559 30.0874 22.5778 29.9327 21.8519 29.632C21.126 29.3313 20.4664 28.8906 19.9109 28.335C19.3553 27.7794 18.9146 27.1199 18.6139 26.394C18.3132 25.668 18.1584 24.89 18.1584 24.1043C18.1584 23.3186 18.3132 22.5406 18.6139 21.8147C18.9146 21.0888 19.3553 20.4292 19.9109 19.8736C20.4664 19.318 21.126 18.8773 21.8519 18.5766C22.5778 18.2759 23.3559 18.1212 24.1416 18.1212C25.7284 18.1212 27.2502 18.7515 28.3723 19.8736C29.4943 20.9956 30.1247 22.5175 30.1247 24.1043C30.1247 25.6911 29.4943 27.213 28.3723 28.335C27.2502 29.4571 25.7284 30.0874 24.1416 30.0874ZM24.1416 14.8875C21.6971 14.8875 19.3528 15.8586 17.6243 17.5871C15.8959 19.3155 14.9248 21.6599 14.9248 24.1043C14.9248 26.5487 15.8959 28.8931 17.6243 30.6215C19.3528 32.35 21.6971 33.3211 24.1416 33.3211C26.586 33.3211 28.9303 32.35 30.6588 30.6215C32.3873 28.8931 33.3583 26.5487 33.3583 24.1043C33.3583 21.6599 32.3873 19.3155 30.6588 17.5871C28.9303 15.8586 26.586 14.8875 24.1416 14.8875ZM36.0397 14.7202C36.0397 15.298 35.8102 15.8522 35.4016 16.2607C34.993 16.6693 34.4388 16.8988 33.861 16.8988C33.2832 16.8988 32.729 16.6693 32.3205 16.2607C31.9119 15.8522 31.6823 15.298 31.6823 14.7202C31.6823 14.1424 31.9119 13.5882 32.3205 13.1796C32.729 12.771 33.2832 12.5415 33.861 12.5415C34.4388 12.5415 34.993 12.771 35.4016 13.1796C35.8102 13.5882 36.0397 14.1424 36.0397 14.7202Z" fill="white"/>
</svg>
