<svg width="155" height="47" viewBox="0 0 155 47" fill="none" xmlns="http://www.w3.org/2000/svg">
<g clip-path="url(#clip0_235_892)">
<path fill-rule="evenodd" clip-rule="evenodd" d="M22.8209 27.6795L15.1358 10.8477C15.0875 10.7298 14.9392 10.6118 14.7445 10.6118C14.5497 10.6118 14.4014 10.7298 14.3031 10.8477L6.66808 27.6795C6.42328 28.1923 5.78718 28.5854 5.00455 28.5854H1.33265C0.891312 28.5854 0.5 28.2691 0.5 27.9153C0.5 27.7974 0.5 27.7188 0.548244 27.6795L12.2965 1.86002C12.5413 1.34899 13.2257 0.954102 13.9601 0.954102H15.5271C16.2615 0.954102 16.8976 1.34899 17.1424 1.86002L28.9389 27.6795C28.9389 27.7188 28.9871 27.7974 28.9871 27.9153C28.9871 28.2709 28.5958 28.5854 28.1063 28.5854H24.4844C23.7 28.5872 23.0639 28.1923 22.8209 27.6795Z" fill="white"/>
<path fill-rule="evenodd" clip-rule="evenodd" d="M32.8105 1.94042V27.6026C32.8105 28.1547 33.3484 28.5889 34.0345 28.5889H37.3133C37.9977 28.5889 38.5373 28.1547 38.5373 27.6026V11.3998C38.5373 11.2819 38.6356 11.2033 38.7821 11.2033C38.8803 11.2033 38.9286 11.2426 38.9786 11.3212L47.1033 27.6795C47.3481 28.2316 48.0324 28.5854 48.8168 28.5854H53.0265C53.7127 28.5854 54.2505 28.1512 54.2505 27.599V1.94042C54.2505 1.3883 53.7127 0.954102 53.0265 0.954102H49.7477C49.0634 0.954102 48.5238 1.3883 48.5238 1.94042V17.0372C48.5238 17.1551 48.4255 17.2337 48.279 17.2337C48.1807 17.2337 48.0824 17.1944 48.0342 17.1158L40.4456 1.86002C40.2008 1.30968 39.5647 0.954102 38.7821 0.954102H34.0345C33.3484 0.954102 32.8105 1.3883 32.8105 1.94042Z" fill="white"/>
<path fill-rule="evenodd" clip-rule="evenodd" d="M58.1152 1.94042V4.58133C58.1152 5.13346 58.6531 5.56586 59.3392 5.56586H65.2125C65.8968 5.56586 66.4364 6.00006 66.4364 6.55218V27.6008C66.4364 28.153 66.9742 28.5872 67.6604 28.5872H70.9392C71.6235 28.5872 72.1632 28.153 72.1632 27.6008V6.55218C72.1632 6.00006 72.701 5.56586 73.3871 5.56586H79.2604C79.9447 5.56586 80.4843 5.13167 80.4843 4.58133V1.94042C80.4843 1.3883 79.9465 0.954102 79.2604 0.954102H59.3392C58.6548 0.954102 58.1152 1.3883 58.1152 1.94042Z" fill="white"/>
<path fill-rule="evenodd" clip-rule="evenodd" d="M93.0067 18.1808C92.8584 18.1808 92.7173 18.1218 92.6136 18.0182C92.51 17.9145 92.451 17.7716 92.451 17.6251C92.451 16.7388 92.451 15.0127 92.451 14.1265C92.451 13.9782 92.51 13.837 92.6136 13.7334C92.7173 13.6297 92.8602 13.5708 93.0067 13.5708C94.1771 13.5708 96.784 13.5708 96.784 13.5708C98.5959 13.5708 100.063 12.4272 100.063 10.9692V8.12815C100.063 6.67011 98.6441 5.56586 96.8323 5.56586H91.3003C90.616 5.56586 90.0763 6.00006 90.0763 6.55218V27.6008C90.0763 28.153 89.5385 28.5872 88.8524 28.5872H85.5736C84.8874 28.5872 84.3496 28.153 84.3496 27.6008V1.93864C84.3496 1.38651 84.8874 0.954102 85.5736 0.954102H96.8305C101.725 0.954102 105.788 4.18645 105.788 8.12815V10.9656C105.788 13.8424 103.635 16.326 100.551 17.4696L106.522 27.6795C106.57 27.7581 106.57 27.876 106.57 27.9546C106.57 28.3102 106.227 28.5854 105.788 28.5854H101.921C101.138 28.5854 100.452 28.1905 100.159 27.6795C100.159 27.6795 95.6566 20.014 94.7399 18.4541C94.6399 18.2844 94.4576 18.179 94.2593 18.179C93.9323 18.1808 93.407 18.1808 93.0067 18.1808Z" fill="white"/>
<path fill-rule="evenodd" clip-rule="evenodd" d="M110.502 1.94059V27.6028C110.502 28.1549 111.04 28.5891 111.726 28.5891H127.829C128.513 28.5891 129.053 28.1549 129.053 27.6028V24.9619C129.053 24.4098 128.515 23.9756 127.829 23.9756H117.453C116.767 23.9756 116.229 23.5414 116.229 22.991V18.2989C116.229 17.7467 116.767 17.3143 117.453 17.3143H124.941C125.626 17.3143 126.165 16.8801 126.165 16.3298V13.7264C126.165 13.1743 125.627 12.7008 124.941 12.7008H117.453C116.767 12.7008 116.229 12.3059 116.229 11.7556V6.55236C116.229 6.00023 116.767 5.56782 117.453 5.56782H127.829C128.513 5.56782 129.053 5.13363 129.053 4.5815V1.94059C129.053 1.38847 128.515 0.95606 127.829 0.95606H111.726C111.04 0.954273 110.502 1.38847 110.502 1.94059Z" fill="white"/>
<path fill-rule="evenodd" clip-rule="evenodd" d="M141.971 28.5873C141.531 28.5873 141.176 28.2317 141.176 27.7922C141.176 26.947 141.176 25.6159 141.176 24.7707C141.176 24.3311 141.531 23.9756 141.971 23.9756C142.754 23.9756 143.829 23.9756 143.829 23.9756C146.57 23.9756 148.773 22.2406 148.773 20.0338V9.54705C148.773 7.34034 146.62 5.56603 143.829 5.56603H139.913C139.228 5.56603 138.689 6.00023 138.689 6.55056C138.689 6.55056 138.74 22.5425 138.755 27.2794C138.757 27.626 138.619 27.9584 138.374 28.2032C138.129 28.448 137.797 28.5855 137.452 28.5855C136.1 28.5855 134.186 28.5855 134.186 28.5855C133.502 28.5855 132.962 28.1513 132.962 27.5992V1.94059C132.962 1.38846 133.5 0.956055 134.186 0.956055H143.829C149.703 0.956055 154.5 4.81914 154.5 9.54884V20.0338C154.5 24.7242 149.654 28.5873 143.829 28.5873C143.829 28.5873 142.752 28.5873 141.971 28.5873Z" fill="white"/>
<path fill-rule="evenodd" clip-rule="evenodd" d="M154.5 30.6919V46.3605H0.5V30.6919H154.5Z" fill="#E42E47"/>
<path d="M1.92773 38.3663L4.40426 33.0273H5.67647L8.15835 38.3663H6.81467L4.77591 33.6563H5.28516L3.2464 38.3663H1.92773ZM3.17136 37.2228L3.50906 36.2847H6.37154L6.71282 37.2228H3.17136Z" fill="white"/>
<path d="M10.5715 38.456C10.1284 38.456 9.70312 38.3988 9.29394 38.2845C8.88476 38.1701 8.55777 38.0236 8.30762 37.8413L8.7436 36.9068C8.97946 37.0694 9.25999 37.2034 9.58876 37.3071C9.91753 37.4107 10.2463 37.4643 10.5787 37.4643C10.836 37.4643 11.0414 37.4393 11.1969 37.391C11.3523 37.3428 11.4667 37.2749 11.54 37.1891C11.6132 37.1034 11.649 37.0051 11.649 36.8943C11.649 36.7514 11.59 36.637 11.4721 36.553C11.3541 36.4673 11.2005 36.3994 11.0093 36.3458C10.8181 36.2922 10.609 36.2421 10.3785 36.1939C10.148 36.1456 9.91753 36.0867 9.68704 36.017C9.45654 35.9473 9.24569 35.8562 9.0545 35.7436C8.86332 35.631 8.70965 35.4827 8.59172 35.2987C8.47379 35.1146 8.41483 34.8788 8.41483 34.5947C8.41483 34.2909 8.50059 34.0158 8.67034 33.7638C8.84187 33.5137 9.10096 33.3135 9.4476 33.1617C9.79425 33.0116 10.232 32.9365 10.7591 32.9365C11.1058 32.9365 11.4488 32.9758 11.7883 33.0562C12.1278 33.1366 12.428 33.2528 12.6871 33.4065L12.2868 34.3427C12.0313 34.2016 11.7722 34.0962 11.5114 34.0283C11.2505 33.9604 10.995 33.9264 10.7484 33.9264C10.4982 33.9264 10.2946 33.955 10.1373 34.0086C9.98007 34.064 9.86572 34.1355 9.79603 34.2266C9.72635 34.3177 9.69061 34.4196 9.69061 34.5321C9.69061 34.6733 9.74957 34.7859 9.8675 34.8699C9.98543 34.9538 10.1391 35.0217 10.3303 35.0718C10.5215 35.1236 10.7323 35.1718 10.9628 35.2201C11.1933 35.2683 11.4238 35.3273 11.6543 35.3952C11.8848 35.4631 12.0939 35.5524 12.2851 35.6632C12.4763 35.774 12.6299 35.9205 12.7478 36.1045C12.8658 36.2886 12.9247 36.5191 12.9247 36.7996C12.9247 37.098 12.839 37.3714 12.6657 37.6215C12.4923 37.8717 12.2332 38.0736 11.8848 38.2255C11.5382 38.3809 11.1004 38.456 10.5715 38.456Z" fill="white"/>
<path d="M15.635 38.456C15.1919 38.456 14.7666 38.3988 14.3574 38.2845C13.9482 38.1701 13.6212 38.0236 13.3711 37.8413L13.8071 36.9068C14.0429 37.0694 14.3253 37.2034 14.6522 37.3071C14.9792 37.4107 15.3098 37.4643 15.6421 37.4643C15.8994 37.4643 16.1049 37.4393 16.2604 37.391C16.4158 37.3428 16.5302 37.2749 16.6034 37.1891C16.6767 37.1034 16.7124 37.0051 16.7124 36.8943C16.7124 36.7514 16.6535 36.637 16.5355 36.553C16.4176 36.4673 16.2639 36.3994 16.0728 36.3458C15.8816 36.2922 15.6725 36.2421 15.442 36.1939C15.2115 36.1456 14.9828 36.0867 14.7505 36.017C14.5182 35.9473 14.3092 35.8562 14.118 35.7436C13.9268 35.631 13.7731 35.4827 13.6552 35.2987C13.5373 35.1146 13.4783 34.8788 13.4783 34.5947C13.4783 34.2909 13.5641 34.0158 13.7338 33.7638C13.9054 33.5137 14.1644 33.3135 14.5111 33.1617C14.8577 33.0116 15.2955 32.9365 15.8226 32.9365C16.1692 32.9365 16.5123 32.9758 16.8536 33.0562C17.1931 33.1366 17.4933 33.2528 17.7524 33.4065L17.3521 34.3427C17.0966 34.2016 16.8375 34.0962 16.5766 34.0283C16.3158 33.9604 16.0602 33.9264 15.8137 33.9264C15.5635 33.9264 15.3598 33.955 15.2026 34.0086C15.0453 34.064 14.931 34.1355 14.8613 34.2266C14.7916 34.3177 14.7559 34.4196 14.7559 34.5321C14.7559 34.6733 14.8148 34.7859 14.9328 34.8699C15.0507 34.9538 15.2044 35.0217 15.3956 35.0718C15.5867 35.1236 15.7976 35.1718 16.0281 35.2201C16.2586 35.2683 16.4891 35.3273 16.7196 35.3952C16.9501 35.4631 17.1591 35.5524 17.3503 35.6632C17.5415 35.774 17.6952 35.9205 17.8131 36.1045C17.931 36.2886 17.99 36.5191 17.99 36.7996C17.99 37.098 17.9042 37.3714 17.7309 37.6215C17.5594 37.8717 17.2985 38.0736 16.9501 38.2255C16.6034 38.3809 16.1639 38.456 15.635 38.456Z" fill="white"/>
<path d="M21.5664 38.456C21.1286 38.456 20.7248 38.3881 20.3531 38.2505C19.9815 38.1129 19.6598 37.9199 19.3865 37.6716C19.1131 37.4232 18.9022 37.132 18.7504 36.796C18.5985 36.4601 18.5234 36.0938 18.5234 35.6954C18.5234 35.2969 18.5985 34.9306 18.7504 34.5983C18.9022 34.2641 19.1131 33.9729 19.3865 33.7227C19.6598 33.4726 19.9815 33.2796 20.3513 33.142C20.7212 33.0044 21.125 32.9365 21.5628 32.9365C22.0024 32.9365 22.4062 33.0044 22.7743 33.1402C23.1423 33.276 23.464 33.469 23.7356 33.7174C24.0072 33.9657 24.2198 34.257 24.3717 34.5929C24.5236 34.9288 24.5986 35.2951 24.5986 35.6954C24.5986 36.0956 24.5236 36.4619 24.3717 36.7978C24.2198 37.1337 24.0089 37.425 23.7356 37.6734C23.464 37.9217 23.1423 38.1129 22.7743 38.2505C22.4062 38.3881 22.0024 38.456 21.5664 38.456ZM21.5628 37.4089C21.8112 37.4089 22.0399 37.3678 22.2507 37.2838C22.4616 37.2016 22.6438 37.0837 22.8011 36.9318C22.9583 36.78 23.0798 36.5995 23.1674 36.3886C23.2549 36.1796 23.2978 35.9491 23.2978 35.6954C23.2978 35.4416 23.2549 35.2111 23.1674 35.0039C23.0798 34.7966 22.9583 34.6161 22.8011 34.4625C22.6438 34.3106 22.4598 34.1927 22.2507 34.1087C22.0399 34.0265 21.8112 33.9836 21.5628 33.9836C21.3144 33.9836 21.0857 34.0247 20.8731 34.1087C20.6623 34.1927 20.4782 34.3088 20.321 34.4625C20.1637 34.6143 20.0404 34.7948 19.9547 35.0039C19.8671 35.2111 19.8242 35.4416 19.8242 35.6954C19.8242 35.9473 19.8671 36.1796 19.9547 36.3886C20.0422 36.5977 20.1637 36.7782 20.321 36.9318C20.4782 37.0855 20.6623 37.2034 20.8731 37.2856C21.0839 37.3678 21.3144 37.4089 21.5628 37.4089Z" fill="white"/>
<path d="M28.2315 38.4557C27.7991 38.4557 27.4006 38.3878 27.0325 38.2538C26.6644 38.1197 26.3464 37.9286 26.0766 37.6802C25.8068 37.4318 25.5959 37.1406 25.4458 36.8047C25.2957 36.4687 25.2207 36.0989 25.2207 35.6968C25.2207 35.2948 25.2957 34.9249 25.4458 34.589C25.5959 34.2531 25.8068 33.9618 26.0784 33.7135C26.35 33.4651 26.6698 33.2739 27.0361 33.1399C27.4042 33.0059 27.8026 32.938 28.2351 32.938C28.7157 32.938 29.1517 33.0184 29.543 33.1774C29.9343 33.3364 30.2595 33.5723 30.5222 33.8814L29.6985 34.6158C29.5091 34.4085 29.2964 34.2513 29.0641 34.1459C28.8301 34.0405 28.5746 33.9868 28.2976 33.9868C28.0385 33.9868 27.7991 34.0279 27.5829 34.1101C27.3667 34.1923 27.179 34.3103 27.02 34.4621C26.861 34.614 26.7395 34.7963 26.6519 35.0053C26.5644 35.2144 26.5215 35.4467 26.5215 35.6986C26.5215 35.9506 26.5662 36.1828 26.6519 36.3919C26.7395 36.601 26.8628 36.7832 27.02 36.9351C27.1773 37.087 27.3667 37.2049 27.5829 37.2871C27.7991 37.3693 28.0367 37.4104 28.2976 37.4104C28.5746 37.4104 28.8301 37.3568 29.0641 37.2514C29.2982 37.1459 29.5091 36.9869 29.6985 36.7761L30.5222 37.5104C30.2595 37.8178 29.9325 38.0518 29.543 38.2144C29.1535 38.377 28.7175 38.4557 28.2315 38.4557Z" fill="white"/>
<path d="M31.3857 38.3667V33.0259H32.674V38.3667H31.3857Z" fill="white"/>
<path d="M33.2578 38.3663L35.7343 33.0273H37.0065L39.4884 38.3663H38.1447L36.106 33.6563H36.6152L34.5765 38.3663H33.2578ZM34.5032 37.2228L34.8409 36.2847H37.7034L38.0465 37.2228H34.5032Z" fill="white"/>
<path d="M40.9568 38.3667V34.0354H39.1807V33.0259H44.0211V34.0354H42.245V38.3667H40.9568Z" fill="white"/>
<path d="M44.7129 38.3667V33.0259H46.0012V38.3667H44.7129Z" fill="white"/>
<path d="M50.0146 38.456C49.5769 38.456 49.173 38.3881 48.8014 38.2505C48.4297 38.1129 48.1081 37.9199 47.8347 37.6716C47.5613 37.4232 47.3505 37.132 47.1986 36.796C47.0467 36.4601 46.9717 36.0938 46.9717 35.6954C46.9717 35.2969 47.0467 34.9306 47.1986 34.5983C47.3505 34.2641 47.5613 33.9729 47.8347 33.7227C48.1081 33.4726 48.4297 33.2796 48.7996 33.142C49.1695 33.0044 49.5733 32.9365 50.011 32.9365C50.4506 32.9365 50.8544 33.0044 51.2225 33.1402C51.5906 33.276 51.9122 33.469 52.1838 33.7174C52.4554 33.9657 52.668 34.257 52.8199 34.5929C52.9718 34.9288 53.0468 35.2951 53.0468 35.6954C53.0468 36.0956 52.9718 36.4619 52.8199 36.7978C52.668 37.1337 52.4572 37.425 52.1838 37.6734C51.9122 37.9217 51.5906 38.1129 51.2225 38.2505C50.8562 38.3881 50.4524 38.456 50.0146 38.456ZM50.0128 37.4089C50.2612 37.4089 50.4899 37.3678 50.7008 37.2838C50.9116 37.2016 51.0939 37.0837 51.2511 36.9318C51.4083 36.78 51.5298 36.5995 51.6174 36.3886C51.7049 36.1796 51.7478 35.9491 51.7478 35.6954C51.7478 35.4416 51.7049 35.2111 51.6174 35.0039C51.5298 34.7966 51.4083 34.6161 51.2511 34.4625C51.0939 34.3106 50.9098 34.1927 50.7008 34.1087C50.4899 34.0265 50.2612 33.9836 50.0128 33.9836C49.7645 33.9836 49.5358 34.0247 49.3231 34.1087C49.1123 34.1927 48.9282 34.3088 48.771 34.4625C48.6138 34.6143 48.4905 34.7948 48.4047 35.0039C48.3172 35.2111 48.2743 35.4416 48.2743 35.6954C48.2743 35.9473 48.3172 36.1796 48.4047 36.3886C48.4923 36.5977 48.6138 36.7782 48.771 36.9318C48.9282 37.0855 49.1123 37.2034 49.3231 37.2856C49.534 37.3678 49.7645 37.4089 50.0128 37.4089Z" fill="white"/>
<path d="M54.0186 38.3667V33.0259H55.0781L58.3605 36.8747H57.8477V33.0259H59.1181V38.3667H58.0568L54.7744 34.5179H55.2872V38.3667H54.0186Z" fill="white"/>
<path d="M62.6826 38.3667V33.0259H63.744L67.0246 36.8747H66.5118V33.0259H67.7822V38.3667H66.7208L63.4384 34.5179H63.953V38.3667H62.6826Z" fill="white"/>
<path d="M68.3662 38.3663L70.8427 33.0273H72.1149L74.5968 38.3663H73.2531L71.2144 33.6563H71.7236L69.6849 38.3663H68.3662ZM69.6098 37.2228L69.9475 36.2847H72.81L73.1531 37.2228H69.6098Z" fill="white"/>
<path d="M76.0642 38.3667V34.0354H74.2881V33.0259H79.1303V34.0354H77.3543V38.3667H76.0642Z" fill="white"/>
<path d="M79.8203 38.3667V33.0259H81.1104V38.3667H79.8203Z" fill="white"/>
<path d="M85.1211 38.456C84.6833 38.456 84.2795 38.3881 83.9078 38.2505C83.5362 38.1129 83.2145 37.9199 82.9412 37.6716C82.6678 37.4232 82.4569 37.132 82.305 36.796C82.1532 36.4601 82.0781 36.0938 82.0781 35.6954C82.0781 35.2969 82.1532 34.9306 82.305 34.5983C82.4569 34.2641 82.6678 33.9729 82.9412 33.7227C83.2145 33.4726 83.5362 33.2796 83.906 33.142C84.2759 33.0044 84.6797 32.9365 85.1175 32.9365C85.5571 32.9365 85.9609 33.0044 86.329 33.1402C86.697 33.276 87.0187 33.469 87.2903 33.7174C87.5619 33.9657 87.7745 34.257 87.9264 34.5929C88.0782 34.9288 88.1533 35.2951 88.1533 35.6954C88.1533 36.0956 88.0782 36.4619 87.9264 36.7978C87.7745 37.1337 87.5636 37.425 87.2903 37.6734C87.0187 37.9217 86.697 38.1129 86.329 38.2505C85.9627 38.3881 85.5588 38.456 85.1211 38.456ZM85.1193 37.4089C85.3676 37.4089 85.5964 37.3678 85.8072 37.2838C86.018 37.2016 86.2003 37.0837 86.3575 36.9318C86.5148 36.78 86.6363 36.5995 86.7238 36.3886C86.8114 36.1796 86.8543 35.9491 86.8543 35.6954C86.8543 35.4416 86.8114 35.2111 86.7238 35.0039C86.6363 34.7966 86.5148 34.6161 86.3575 34.4625C86.2003 34.3106 86.0163 34.1927 85.8072 34.1087C85.5964 34.0265 85.3676 33.9836 85.1193 33.9836C84.8709 33.9836 84.6422 34.0247 84.4296 34.1087C84.2187 34.1927 84.0347 34.3088 83.8774 34.4625C83.7202 34.6143 83.5987 34.7948 83.5111 35.0039C83.4236 35.2111 83.3807 35.4416 83.3807 35.6954C83.3807 35.9473 83.4236 36.1796 83.5111 36.3886C83.5987 36.5977 83.7202 36.7782 83.8774 36.9318C84.0347 37.0855 84.2187 37.2034 84.4296 37.2856C84.6404 37.3678 84.8709 37.4089 85.1193 37.4089Z" fill="white"/>
<path d="M89.126 38.3667V33.0259H90.1873L93.4679 36.8747H92.9551V33.0259H94.2255V38.3667H93.1642L89.8836 34.5179H90.3964V38.3667H89.126Z" fill="white"/>
<path d="M94.8096 38.3663L97.2879 33.0273H98.5601L101.042 38.3663H99.6983L97.6595 33.6563H98.1688L96.13 38.3663H94.8096ZM96.0532 37.2228L96.3909 36.2847H99.2534L99.5947 37.2228H96.0532Z" fill="white"/>
<path d="M101.626 38.3667V33.0259H102.914V37.3571H105.696V38.3667H101.626Z" fill="white"/>
<path d="M107.607 35.1754H110.285V36.1367H107.607V35.1754ZM107.7 37.3714H110.728V38.3649H106.424V33.0259H110.621V34.0193H107.701V37.3714H107.7Z" fill="white"/>
<path d="M115.149 38.3667V34.0354H113.373V33.0259H118.215V34.0354H116.439V38.3667H115.149Z" fill="white"/>
<path d="M118.905 38.3667V33.0259H120.195V38.3667H118.905Z" fill="white"/>
<path d="M121.512 38.3663V33.0273H123.915C124.415 33.0273 124.844 33.1042 125.205 33.2596C125.566 33.4151 125.845 33.6366 126.04 33.9279C126.234 34.2191 126.333 34.564 126.333 34.9625C126.333 35.3591 126.234 35.7022 126.04 35.9917C125.845 36.2811 125.566 36.5027 125.205 36.6599C124.844 36.8154 124.414 36.894 123.915 36.894H122.226L122.802 36.3401V38.3663H121.512ZM122.8 36.4723L122.225 35.8862H123.847C124.24 35.8862 124.537 35.8041 124.733 35.6415C124.932 35.4789 125.03 35.2519 125.03 34.9607C125.03 34.6659 124.932 34.4371 124.733 34.2745C124.535 34.1119 124.24 34.0315 123.847 34.0315H122.225L122.8 33.4455V36.4723Z" fill="white"/>
<path d="M131.054 33.0259H132.344V38.3649H131.054V33.0259ZM128.532 38.3667H127.244V33.0277H128.532V38.3667ZM131.148 36.176H128.436V35.1343H131.148V36.176Z" fill="white"/>
<path d="M132.928 38.3667L135.404 33.0259H136.676L139.158 38.3649H137.815L135.776 33.6548H136.285L134.246 38.3649H132.928V38.3667ZM134.171 37.2231L134.509 36.285H137.372L137.715 37.2231H134.171Z" fill="white"/>
<path d="M139.742 38.3667V33.0259H141.032V38.3667H139.742Z" fill="white"/>
<path d="M142.35 38.3667V33.0259H143.411L146.692 36.8747H146.179V33.0259H147.449V38.3667H146.388L143.107 34.5179H143.62V38.3667H142.35Z" fill="white"/>
<path d="M149.949 35.1754H152.627V36.1367H149.949V35.1754ZM150.043 37.3714H153.072V38.3649H148.768V33.0259H152.965V34.0193H150.045V37.3714H150.043Z" fill="white"/>
<path d="M1.48438 44.0541V40.3394H3.15504C3.50169 40.3394 3.80187 40.393 4.05202 40.502C4.30218 40.6092 4.49694 40.7646 4.63274 40.9665C4.76854 41.1684 4.83644 41.4079 4.83644 41.6866C4.83644 41.9618 4.76854 42.2012 4.63274 42.4013C4.49694 42.6015 4.30396 42.7569 4.05202 42.8659C3.80008 42.9749 3.50169 43.0285 3.15504 43.0285H1.98111L2.38135 42.6426V44.0524L1.48438 44.0541ZM2.38135 42.7373L1.98111 42.3299H3.10859C3.38197 42.3299 3.58745 42.2727 3.72504 42.1601C3.86262 42.0475 3.93231 41.8885 3.93231 41.6866C3.93231 41.4811 3.86262 41.3221 3.72504 41.2095C3.58745 41.097 3.38197 41.0398 3.10859 41.0398H1.98111L2.38135 40.6324V42.7373Z" fill="white"/>
<path d="M7.40058 44.1167C7.09682 44.1167 6.8145 44.0685 6.55541 43.9738C6.29633 43.8791 6.07297 43.7433 5.88357 43.5717C5.69417 43.3984 5.54586 43.1965 5.44044 42.9624C5.33502 42.7301 5.2832 42.4746 5.2832 42.1977C5.2832 41.9207 5.33502 41.667 5.44044 41.4329C5.54586 41.2006 5.69417 40.9969 5.88357 40.8236C6.07297 40.6503 6.29633 40.5163 6.55541 40.4198C6.81271 40.3251 7.09503 40.2769 7.39879 40.2769C7.70433 40.2769 7.98486 40.3233 8.24216 40.4198C8.49947 40.5145 8.72103 40.6485 8.91043 40.8218C9.09983 40.9952 9.24635 41.1971 9.35178 41.4311C9.4572 41.6652 9.50901 41.9189 9.50901 42.1977C9.50901 42.4764 9.4572 42.7319 9.35178 42.9642C9.24635 43.1983 9.09983 43.402 8.91043 43.5735C8.72103 43.7468 8.49768 43.8791 8.24216 43.9756C7.98486 44.0685 7.70433 44.1167 7.40058 44.1167ZM7.39879 43.3877C7.57211 43.3877 7.73114 43.3591 7.87765 43.3001C8.02417 43.243 8.15104 43.1608 8.26003 43.0553C8.36903 42.9499 8.45301 42.8231 8.51555 42.6783C8.5763 42.5318 8.60667 42.371 8.60667 42.1959C8.60667 42.019 8.5763 41.8582 8.51555 41.7135C8.4548 41.5687 8.37081 41.4436 8.26003 41.3364C8.14925 41.2292 8.02417 41.1488 7.87765 41.0899C7.73114 41.0327 7.57211 41.0023 7.39879 41.0023C7.22547 41.0023 7.06644 41.0309 6.91992 41.0899C6.7734 41.147 6.64475 41.2292 6.53576 41.3364C6.42676 41.4419 6.341 41.5687 6.28024 41.7135C6.21949 41.8582 6.18912 42.019 6.18912 42.1941C6.18912 42.3692 6.21949 42.53 6.28024 42.6765C6.341 42.8231 6.42676 42.9481 6.53576 43.0553C6.64475 43.1626 6.7734 43.2447 6.91992 43.3019C7.06644 43.3591 7.22547 43.3877 7.39879 43.3877Z" fill="white"/>
<path d="M11.9034 44.1167C11.3549 44.1167 10.926 43.9702 10.6169 43.6771C10.3078 43.3841 10.1523 42.9642 10.1523 42.4174V40.3394H11.0493V42.3906C11.0493 42.7426 11.1244 42.9963 11.2762 43.1536C11.4281 43.3108 11.639 43.3894 11.9106 43.3894C12.1839 43.3894 12.3948 43.3108 12.5449 43.1536C12.695 42.9963 12.77 42.7426 12.77 42.3906V40.3394H13.6509V42.4174C13.6509 42.9642 13.4973 43.3841 13.1881 43.6771C12.879 43.9702 12.452 44.1167 11.9034 44.1167Z" fill="white"/>
<path d="M14.5352 44.0541V40.3394H16.2058C16.5525 40.3394 16.8527 40.393 17.1028 40.502C17.3547 40.6092 17.5477 40.7646 17.6835 40.9665C17.8193 41.1684 17.8872 41.4079 17.8872 41.6866C17.8872 41.9618 17.8193 42.1994 17.6835 42.3995C17.5477 42.5997 17.3547 42.7516 17.1028 42.8588C16.8527 42.966 16.5525 43.0178 16.2058 43.0178H15.0319L15.4321 42.6443V44.0541H14.5352ZM16.9974 44.0541L16.0271 42.7051H16.9849L17.9623 44.0541H16.9974ZM15.4321 42.7373L15.0319 42.3334H16.1594C16.4328 42.3334 16.6382 42.2763 16.7758 42.1619C16.9134 42.0475 16.9831 41.8885 16.9831 41.6866C16.9831 41.4811 16.9152 41.3221 16.7758 41.2095C16.6382 41.097 16.4328 41.0398 16.1594 41.0398H15.0319L15.4321 40.6324V42.7373Z" fill="white"/>
<path d="M20.1621 44.0541V40.3394H21.0573V43.3519H22.9942V44.0541H20.1621Z" fill="white"/>
<path d="M22.9883 44.0541L24.7108 40.3394H25.5952L27.3213 44.0541H26.3868L24.9681 40.7771H25.3236L23.9049 44.0541H22.9883ZM23.8549 43.259L24.089 42.6068H26.0813L26.3189 43.259H23.8549Z" fill="white"/>
<path d="M29.2949 44.0541V40.3394H30.9656C31.314 40.3394 31.6124 40.393 31.8644 40.502C32.1163 40.6092 32.3093 40.7646 32.4451 40.9665C32.5809 41.1684 32.6488 41.4079 32.6488 41.6866C32.6488 41.9618 32.5809 42.1994 32.4451 42.3995C32.3093 42.5997 32.1163 42.7516 31.8644 42.8588C31.6142 42.966 31.314 43.0178 30.9656 43.0178H29.7917L30.1919 42.6443V44.0541H29.2949ZM31.7554 44.0541L30.7851 42.7051H31.7429L32.7202 44.0541H31.7554ZM30.1919 42.7373L29.7917 42.3334H30.9191C31.1925 42.3334 31.398 42.2763 31.5356 42.1619C31.6732 42.0475 31.7429 41.8885 31.7429 41.6866C31.7429 41.4811 31.6732 41.3221 31.5356 41.2095C31.398 41.097 31.1925 41.0398 30.9191 41.0398H29.7917L30.1919 40.6324V42.7373Z" fill="white"/>
<path d="M34.1792 41.8349H36.0428V42.5032H34.1792V41.8349ZM34.2435 43.3626H36.3502V44.0541H33.3555V40.3394H36.2751V41.0309H34.2435V43.3626Z" fill="white"/>
<path d="M38.89 44.1164C38.5899 44.1164 38.3111 44.0699 38.0556 43.9752C37.8001 43.8805 37.5785 43.7483 37.3909 43.5768C37.2033 43.4052 37.0568 43.2015 36.9531 42.9675C36.8495 42.7334 36.7959 42.4761 36.7959 42.1974C36.7959 41.9168 36.8477 41.6595 36.9531 41.4272C37.0586 41.195 37.2051 40.9895 37.3927 40.8179C37.5821 40.6464 37.8037 40.5124 38.0592 40.4195C38.3147 40.3248 38.5934 40.2783 38.8936 40.2783C39.2277 40.2783 39.5315 40.3337 39.8031 40.4463C40.0747 40.5571 40.3016 40.7214 40.4839 40.9359L39.9103 41.4469C39.7781 41.3022 39.6316 41.1932 39.469 41.1199C39.3064 41.0466 39.1277 41.0091 38.9347 41.0091C38.7542 41.0091 38.5881 41.0377 38.438 41.0949C38.2879 41.1521 38.1574 41.2343 38.0467 41.3397C37.9359 41.4451 37.8501 41.572 37.7894 41.7185C37.7286 41.865 37.6982 42.024 37.6982 42.2009C37.6982 42.376 37.7286 42.5368 37.7894 42.6834C37.8501 42.8299 37.9359 42.955 38.0467 43.0604C38.1574 43.1658 38.2879 43.248 38.438 43.3052C38.5881 43.3624 38.7542 43.3909 38.9347 43.3909C39.1277 43.3909 39.3046 43.3534 39.469 43.2802C39.6316 43.2069 39.7781 43.0961 39.9103 42.9496L40.4839 43.4606C40.3016 43.6751 40.0747 43.8377 39.8031 43.9502C39.5315 44.0592 39.2278 44.1164 38.89 44.1164Z" fill="white"/>
<path d="M43.7337 40.3394H44.6306V44.0541H43.7337V40.3394ZM41.979 44.0541H41.082V40.3394H41.979V44.0541ZM43.798 42.5318H41.9111V41.8063H43.798V42.5318Z" fill="white"/>
<path d="M46.3688 41.8349H48.2325V42.5032H46.3688V41.8349ZM46.4349 43.3626H48.5416V44.0541H45.5469V40.3394H48.4665V41.0309H46.4349V43.3626Z" fill="white"/>
<path d="M49.2549 44.0541V40.3394H50.9256C51.274 40.3394 51.5724 40.393 51.8225 40.502C52.0727 40.611 52.2675 40.7646 52.4033 40.9665C52.539 41.1684 52.6069 41.4079 52.6069 41.6866C52.6069 41.9618 52.539 42.1994 52.4033 42.3995C52.2675 42.5997 52.0745 42.7516 51.8225 42.8588C51.5706 42.966 51.2722 43.0178 50.9256 43.0178H49.7516L50.1519 42.6443V44.0541H49.2549ZM51.7153 44.0541L50.7451 42.7051H51.7028L52.6802 44.0541H51.7153ZM50.1519 42.7373L49.7516 42.3334H50.8791C51.1525 42.3334 51.358 42.2763 51.4955 42.1619C51.6331 42.0475 51.7028 41.8885 51.7028 41.6866C51.7028 41.4811 51.6331 41.3221 51.4955 41.2095C51.358 41.097 51.1525 41.0398 50.8791 41.0398H49.7516L50.1519 40.6324V42.7373Z" fill="white"/>
<path d="M55.1693 44.1164C54.8692 44.1164 54.5904 44.0699 54.3349 43.9752C54.0794 43.8805 53.8578 43.7483 53.6702 43.5768C53.4826 43.4052 53.3361 43.2015 53.2324 42.9675C53.1288 42.7334 53.0752 42.4761 53.0752 42.1974C53.0752 41.9168 53.127 41.6595 53.2324 41.4272C53.3379 41.195 53.4844 40.9895 53.672 40.8179C53.8614 40.6464 54.083 40.5124 54.3385 40.4195C54.594 40.3248 54.8727 40.2783 55.1729 40.2783C55.5071 40.2783 55.8108 40.3337 56.0824 40.4463C56.354 40.5589 56.5809 40.7214 56.7632 40.9359L56.1896 41.4469C56.0574 41.3022 55.9109 41.1932 55.7483 41.1199C55.5857 41.0466 55.4088 41.0091 55.214 41.0091C55.0335 41.0091 54.8674 41.0377 54.7173 41.0949C54.5672 41.1521 54.4367 41.2343 54.326 41.3397C54.2152 41.4451 54.1312 41.572 54.0687 41.7185C54.0079 41.865 53.9775 42.024 53.9775 42.2009C53.9775 42.376 54.0079 42.5368 54.0687 42.6834C54.1294 42.8299 54.2152 42.955 54.326 43.0604C54.4367 43.1658 54.5672 43.248 54.7173 43.3052C54.8674 43.3624 55.0335 43.3909 55.214 43.3909C55.407 43.3909 55.5839 43.3534 55.7483 43.2802C55.9109 43.2069 56.0574 43.0961 56.1896 42.9496L56.7632 43.4606C56.5809 43.6751 56.354 43.8377 56.0824 43.9502C55.8108 44.0628 55.5053 44.1164 55.1693 44.1164Z" fill="white"/>
<path d="M60.013 40.3394H60.9099V44.0541H60.013V40.3394ZM58.2583 44.0541H57.3613V40.3394H58.2583V44.0541ZM60.0773 42.5318H58.1904V41.8063H60.0773V42.5318Z" fill="white"/>
<path d="M62.6489 41.8349H64.5126V42.5032H62.6489V41.8349ZM62.7132 43.3626H64.8199V44.0541H61.8252V40.3394H64.7448V41.0309H62.7132V43.3626Z" fill="white"/>
<path d="M66.5889 44.054L68.3114 40.3392H69.1958L70.9255 44.054H69.9874L68.574 40.7752H68.9278L67.5055 44.054H66.5889ZM67.4501 43.2571L67.6878 42.6049H69.6765L69.9195 43.2571H67.4501ZM68.583 40.0372L67.5841 39.2725H68.5115L69.2566 40.0372H68.583Z" fill="white"/>
<path d="M72.8926 44.0541V40.3394H73.7896V43.3519H75.7247V44.0541H72.8926Z" fill="white"/>
<path d="M75.7805 41.8796L76.145 40.6056L76.2683 41.0844C76.1128 41.0844 75.9842 41.0398 75.8823 40.9504C75.7805 40.8611 75.7305 40.7396 75.7305 40.5859C75.7305 40.4305 75.7823 40.3072 75.8841 40.2142C75.986 40.1213 76.1146 40.0767 76.2665 40.0767C76.4202 40.0767 76.5488 40.1231 76.6489 40.216C76.749 40.3089 76.799 40.4322 76.799 40.5859C76.799 40.6288 76.7954 40.6735 76.7883 40.7181C76.7811 40.7628 76.7668 40.8146 76.7472 40.8754C76.7275 40.9361 76.6936 41.0147 76.6507 41.113L76.3308 41.8778H75.7805V41.8796Z" fill="white"/>
<path d="M78.2641 41.8347H80.126V42.503H78.2641V41.8347ZM78.3303 43.3643H80.4351V44.054H77.4404V40.3392H80.3619V41.0289H78.3285V43.3643H78.3303ZM78.4017 40.0372L79.1468 39.2725H80.0742L79.0754 40.0372H78.4017Z" fill="white"/>
<path d="M81.9466 44.0541V41.0416H80.7119V40.3394H84.0801V41.0416H82.8436V44.0541H81.9466Z" fill="white"/>
<path d="M84.5605 44.0541V40.3394H86.2312C86.5779 40.3394 86.878 40.393 87.1282 40.502C87.3783 40.611 87.5731 40.7646 87.7089 40.9665C87.8447 41.1684 87.9126 41.4079 87.9126 41.6866C87.9126 41.9618 87.8447 42.1994 87.7089 42.3995C87.5731 42.5997 87.3801 42.7516 87.1282 42.8588C86.8763 42.966 86.5779 43.0178 86.2312 43.0178H85.0573L85.4575 42.6443V44.0541H84.5605ZM87.021 44.0541L86.0507 42.7051H87.0085L87.9859 44.0541H87.021ZM85.4575 42.7373L85.0573 42.3334H86.1848C86.4581 42.3334 86.6636 42.2763 86.8012 42.1619C86.9388 42.0475 87.0085 41.8885 87.0085 41.6866C87.0085 41.4811 86.9388 41.3221 86.8012 41.2095C86.6636 41.097 86.4581 41.0398 86.1848 41.0398H85.0573L85.4575 40.6324V42.7373Z" fill="white"/>
<path d="M88.1113 44.0541L89.8356 40.3394H90.7201L92.4461 44.0541H91.5116L90.0929 40.7771H90.4485L89.0297 44.0541H88.1113ZM88.9779 43.259L89.212 42.6068H91.2043L91.4419 43.259H88.9779Z" fill="white"/>
<path d="M92.8535 44.0541V40.3394H93.5915L95.875 43.016H95.5177V40.3394H96.4021V44.0541H95.6624L93.3806 41.3775H93.738V44.0541H92.8535Z" fill="white"/>
<path d="M99.1819 44.1164C98.8781 44.1164 98.5976 44.0699 98.3403 43.9752C98.083 43.8805 97.8614 43.7483 97.672 43.5768C97.4826 43.4052 97.3361 43.2015 97.2324 42.9675C97.1288 42.7334 97.0752 42.4761 97.0752 42.1974C97.0752 41.9168 97.127 41.6595 97.2324 41.4272C97.3379 41.195 97.4844 40.9895 97.6756 40.8179C97.8668 40.6464 98.0901 40.5124 98.3492 40.4195C98.6065 40.3248 98.8906 40.2783 99.1997 40.2783C99.5428 40.2783 99.8519 40.3319 100.125 40.4409C100.4 40.5499 100.631 40.7089 100.817 40.918L100.247 41.429C100.106 41.2861 99.952 41.1807 99.7876 41.111C99.6232 41.0413 99.4409 41.0073 99.2444 41.0073C99.0586 41.0073 98.8888 41.0359 98.7334 41.0931C98.5779 41.1503 98.4457 41.2325 98.3331 41.3379C98.2205 41.4433 98.1348 41.5684 98.074 41.7149C98.0133 41.8596 97.9829 42.0222 97.9829 42.1991C97.9829 42.3707 98.0133 42.5297 98.074 42.6762C98.1348 42.8227 98.2205 42.9478 98.3331 43.055C98.4457 43.1622 98.5779 43.2444 98.7298 43.3034C98.8817 43.3624 99.0514 43.3909 99.2355 43.3909C99.4141 43.3909 99.5857 43.3641 99.7536 43.3088C99.9198 43.2534 100.084 43.1604 100.245 43.0282L100.751 43.6482C100.54 43.8019 100.295 43.9198 100.018 44.0003C99.7358 44.0753 99.4588 44.1164 99.1819 44.1164ZM99.9305 43.5321V42.1366H100.745V43.6429L99.9305 43.5321Z" fill="white"/>
<path d="M102.399 41.8349H104.263V42.5032H102.399V41.8349ZM102.463 43.3626H104.57V44.0541H101.575V40.3394H104.495V41.0309H102.463V43.3626Z" fill="white"/>
<path d="M105.282 44.0541V40.3394H106.953C107.301 40.3394 107.6 40.393 107.85 40.502C108.102 40.6092 108.295 40.7646 108.431 40.9665C108.566 41.1684 108.634 41.4079 108.634 41.6866C108.634 41.9618 108.566 42.1994 108.431 42.3995C108.295 42.5997 108.102 42.7516 107.85 42.8588C107.6 42.966 107.3 43.0178 106.953 43.0178H105.779L106.179 42.6443V44.0541H105.282ZM107.743 44.0541L106.772 42.7051H107.73L108.708 44.0541H107.743ZM106.179 42.7373L105.779 42.3334H106.906C107.18 42.3334 107.385 42.2763 107.523 42.1619C107.66 42.0475 107.73 41.8885 107.73 41.6866C107.73 41.4811 107.66 41.3221 107.523 41.2095C107.385 41.097 107.18 41.0398 106.906 41.0398H105.779L106.179 40.6324V42.7373Z" fill="white"/>
<path d="M110.907 44.0541V40.3394H112.662C113.084 40.3394 113.455 40.4162 113.775 40.5699C114.095 40.7235 114.345 40.9379 114.524 41.2149C114.702 41.4919 114.794 41.8188 114.794 42.1941C114.794 42.5711 114.704 42.8981 114.524 43.175C114.343 43.452 114.095 43.6682 113.775 43.8219C113.455 43.9755 113.084 44.0524 112.662 44.0524H110.907V44.0541ZM111.804 43.3501H112.621C112.88 43.3501 113.103 43.3037 113.291 43.209C113.48 43.1143 113.627 42.9821 113.732 42.8087C113.838 42.6354 113.889 42.4317 113.889 42.1959C113.889 41.9582 113.838 41.7545 113.732 41.583C113.627 41.4114 113.48 41.2792 113.291 41.1845C113.101 41.0898 112.878 41.0434 112.621 41.0434H111.804V43.3501Z" fill="white"/>
<path d="M116.292 41.8349H118.156V42.5032H116.292V41.8349ZM116.357 43.3626H118.463V44.0541H115.469V40.3394H118.388V41.0309H116.357V43.3626Z" fill="white"/>
<path d="M120.449 44.1167C120.14 44.1167 119.843 44.0774 119.561 43.997C119.277 43.9184 119.048 43.8147 118.875 43.6897L119.179 43.0393C119.343 43.1518 119.538 43.2447 119.767 43.318C119.994 43.3913 120.224 43.427 120.455 43.427C120.633 43.427 120.776 43.4091 120.885 43.3752C120.994 43.3412 121.073 43.293 121.125 43.234C121.175 43.1733 121.201 43.1054 121.201 43.0285C121.201 42.9303 121.16 42.8499 121.078 42.7909C120.996 42.7319 120.889 42.6837 120.757 42.6462C120.624 42.6086 120.478 42.5729 120.319 42.5407C120.158 42.5068 119.999 42.4657 119.838 42.4175C119.677 42.3692 119.531 42.3049 119.399 42.2281C119.266 42.1512 119.159 42.0458 119.077 41.9189C118.995 41.7903 118.954 41.6277 118.954 41.4293C118.954 41.2185 119.013 41.0255 119.132 40.8522C119.252 40.6771 119.431 40.5377 119.672 40.4341C119.913 40.3287 120.217 40.2769 120.583 40.2769C120.824 40.2769 121.064 40.3054 121.3 40.359C121.536 40.4144 121.745 40.4948 121.925 40.6038L121.646 41.2542C121.468 41.156 121.287 41.0827 121.107 41.0363C120.924 40.9898 120.748 40.9666 120.576 40.9666C120.401 40.9666 120.26 40.9862 120.151 41.0237C120.042 41.0613 119.963 41.1131 119.913 41.1756C119.863 41.2382 119.84 41.3096 119.84 41.3883C119.84 41.4865 119.881 41.5634 119.963 41.6223C120.045 41.6813 120.153 41.7277 120.285 41.7635C120.417 41.7992 120.564 41.8332 120.724 41.8671C120.885 41.9011 121.044 41.9422 121.205 41.9886C121.366 42.0351 121.511 42.0976 121.645 42.1744C121.777 42.2513 121.884 42.3531 121.966 42.4818C122.048 42.6086 122.089 42.7712 122.089 42.966C122.089 43.1733 122.031 43.3645 121.909 43.5378C121.789 43.7111 121.609 43.8523 121.366 43.9577C121.121 44.0631 120.817 44.1167 120.449 44.1167Z" fill="white"/>
<path d="M124.262 44.0541V40.3394H126.016C126.438 40.3394 126.81 40.4162 127.13 40.5699C127.449 40.7235 127.7 40.9379 127.878 41.2149C128.059 41.4919 128.148 41.8188 128.148 42.1941C128.148 42.5711 128.059 42.8981 127.878 43.175C127.698 43.452 127.449 43.6682 127.13 43.8219C126.81 43.9755 126.438 44.0524 126.016 44.0524H124.262V44.0541ZM125.159 43.3501H125.975C126.234 43.3501 126.458 43.3037 126.645 43.209C126.835 43.1143 126.981 42.9821 127.087 42.8087C127.192 42.6354 127.244 42.4317 127.244 42.1959C127.244 41.9582 127.192 41.7545 127.087 41.583C126.981 41.4114 126.835 41.2792 126.645 41.1845C126.456 41.0898 126.233 41.0434 125.975 41.0434H125.159V43.3501Z" fill="white"/>
<path d="M128.825 44.0541V40.3394H129.722V44.0541H128.825Z" fill="white"/>
<path d="M131.909 44.1167C131.6 44.1167 131.303 44.0774 131.019 43.997C130.735 43.9184 130.506 43.8147 130.333 43.6897L130.637 43.0393C130.801 43.1518 130.996 43.2447 131.225 43.318C131.452 43.3913 131.682 43.427 131.913 43.427C132.091 43.427 132.234 43.4091 132.343 43.3752C132.452 43.3412 132.531 43.293 132.583 43.234C132.633 43.1733 132.659 43.1054 132.659 43.0285C132.659 42.9303 132.618 42.8499 132.536 42.7909C132.454 42.7319 132.347 42.6837 132.215 42.6462C132.082 42.6086 131.936 42.5729 131.775 42.5407C131.616 42.5068 131.455 42.4657 131.294 42.4175C131.134 42.3692 130.987 42.3049 130.855 42.2281C130.723 42.1512 130.615 42.0458 130.533 41.9189C130.451 41.7903 130.41 41.6277 130.41 41.4293C130.41 41.2185 130.469 41.0255 130.589 40.8522C130.708 40.6789 130.887 40.5377 131.128 40.4341C131.369 40.3287 131.673 40.2769 132.039 40.2769C132.281 40.2769 132.52 40.3054 132.756 40.359C132.992 40.4144 133.201 40.4948 133.381 40.6038L133.103 41.2542C132.924 41.156 132.745 41.0827 132.563 41.0363C132.381 40.9898 132.204 40.9666 132.032 40.9666C131.859 40.9666 131.716 40.9862 131.607 41.0237C131.498 41.0613 131.419 41.1131 131.369 41.1756C131.321 41.2382 131.296 41.3096 131.296 41.3883C131.296 41.4865 131.337 41.5634 131.419 41.6223C131.502 41.6813 131.609 41.7277 131.741 41.7635C131.873 41.7992 132.02 41.8332 132.181 41.8671C132.341 41.9011 132.5 41.9422 132.661 41.9886C132.82 42.0351 132.967 42.0976 133.101 42.1744C133.233 42.2513 133.34 42.3531 133.422 42.4818C133.505 42.6086 133.546 42.7712 133.546 42.966C133.546 43.1733 133.485 43.3645 133.365 43.5378C133.246 43.7111 133.065 43.8523 132.822 43.9577C132.583 44.0631 132.277 44.1167 131.909 44.1167Z" fill="white"/>
<path d="M134.16 44.0541V40.3394H135.831C136.179 40.3394 136.478 40.393 136.73 40.502C136.982 40.611 137.175 40.7646 137.31 40.9665C137.446 41.1684 137.514 41.4079 137.514 41.6866C137.514 41.9618 137.446 42.2012 137.31 42.4013C137.175 42.6032 136.982 42.7569 136.73 42.8659C136.478 42.9749 136.179 43.0285 135.831 43.0285H134.657L135.057 42.6426V44.0524L134.16 44.0541ZM135.057 42.7373L134.657 42.3299H135.784C136.058 42.3299 136.263 42.2727 136.401 42.1601C136.538 42.0475 136.608 41.8885 136.608 41.6866C136.608 41.4811 136.538 41.3221 136.401 41.2095C136.263 41.097 136.058 41.0398 135.784 41.0398H134.657L135.057 40.6324V42.7373Z" fill="white"/>
<path d="M137.452 44.0541L139.176 40.3394H140.061L141.787 44.0541H140.852L139.434 40.7771H139.789L138.371 44.0541H137.452ZM138.317 43.259L138.551 42.6068H140.543L140.781 43.259H138.317Z" fill="white"/>
<path d="M142.194 44.0541V40.3394H143.865C144.213 40.3394 144.512 40.393 144.762 40.502C145.014 40.6092 145.207 40.7646 145.343 40.9665C145.478 41.1684 145.546 41.4079 145.546 41.6866C145.546 41.9618 145.478 42.1994 145.343 42.3995C145.207 42.5997 145.014 42.7516 144.762 42.8588C144.512 42.966 144.212 43.0178 143.865 43.0178H142.691L143.091 42.6443V44.0541H142.194ZM144.655 44.0541L143.685 42.7051H144.642L145.62 44.0541H144.655ZM143.091 42.7373L142.691 42.3334H143.819C144.092 42.3334 144.297 42.2763 144.435 42.1619C144.573 42.0475 144.642 41.8885 144.642 41.6866C144.642 41.4811 144.573 41.3221 144.435 41.2095C144.297 41.097 144.092 41.0398 143.819 41.0398H142.691L143.091 40.6324V42.7373Z" fill="white"/>
<path d="M147.973 44.1167C147.424 44.1167 146.996 43.9702 146.686 43.6771C146.377 43.3841 146.224 42.9642 146.224 42.4174V40.3394H147.121V42.3906C147.121 42.7426 147.196 42.9963 147.348 43.1536C147.499 43.3108 147.71 43.3894 147.982 43.3894C148.255 43.3894 148.466 43.3108 148.616 43.1536C148.766 42.9963 148.841 42.7426 148.841 42.3906V40.3394H149.722V42.4174C149.722 42.9642 149.569 43.3841 149.258 43.6771C148.95 43.9702 148.521 44.1167 147.973 44.1167Z" fill="white"/>
<path d="M151.877 44.1167C151.568 44.1167 151.271 44.0774 150.987 43.997C150.703 43.9184 150.474 43.8147 150.301 43.6897L150.605 43.0393C150.769 43.1518 150.964 43.2447 151.192 43.318C151.419 43.3913 151.65 43.427 151.88 43.427C152.059 43.427 152.202 43.4091 152.311 43.3752C152.42 43.3412 152.499 43.293 152.55 43.234C152.6 43.1733 152.627 43.1054 152.627 43.0285C152.627 42.9303 152.586 42.8499 152.504 42.7909C152.422 42.7319 152.315 42.6837 152.182 42.6462C152.05 42.6086 151.904 42.5729 151.745 42.5407C151.584 42.5068 151.425 42.4657 151.264 42.4175C151.103 42.3692 150.957 42.3049 150.824 42.2281C150.692 42.1494 150.585 42.0458 150.503 41.9189C150.42 41.7903 150.379 41.6277 150.379 41.4293C150.379 41.2185 150.438 41.0255 150.558 40.8522C150.678 40.6771 150.856 40.5377 151.098 40.4341C151.339 40.3287 151.643 40.2769 152.009 40.2769C152.25 40.2769 152.49 40.3054 152.725 40.359C152.961 40.4144 153.17 40.4948 153.351 40.6038L153.072 41.2542C152.893 41.156 152.713 41.0827 152.533 41.0363C152.35 40.9898 152.173 40.9666 152.002 40.9666C151.827 40.9666 151.686 40.9862 151.577 41.0237C151.468 41.0613 151.389 41.1131 151.339 41.1756C151.289 41.2382 151.266 41.3096 151.266 41.3883C151.266 41.4865 151.307 41.5634 151.389 41.6223C151.471 41.6813 151.578 41.7277 151.711 41.7635C151.843 41.7992 151.989 41.8332 152.15 41.8671C152.311 41.9011 152.472 41.9422 152.631 41.9886C152.792 42.0351 152.936 42.0976 153.07 42.1744C153.203 42.2513 153.31 42.3531 153.392 42.4818C153.474 42.6086 153.515 42.7712 153.515 42.966C153.515 43.1733 153.455 43.3645 153.335 43.5378C153.215 43.7111 153.035 43.8523 152.792 43.9577C152.55 44.0631 152.245 44.1167 151.877 44.1167Z" fill="white"/>
</g>
<defs>
<clipPath id="clip0_235_892">
<rect width="154" height="45.4065" fill="white" transform="translate(0.5 0.954102)"/>
</clipPath>
</defs>
</svg>
