<svg width="48" height="49" viewBox="0 0 48 49" fill="none" xmlns="http://www.w3.org/2000/svg">
<path fill-rule="evenodd" clip-rule="evenodd" d="M43.8321 24.105C43.8321 35.1086 34.9119 44.0288 23.9082 44.0288C12.9046 44.0288 3.98438 35.1086 3.98438 24.105C3.98438 13.1014 12.9046 4.18115 23.9082 4.18115C34.9119 4.18115 43.8321 13.1014 43.8321 24.105ZM24.6222 18.8898C22.6843 19.6959 18.8112 21.3642 13.003 23.8947C12.0599 24.2698 11.5658 24.6367 11.5208 24.9955C11.4448 25.6018 12.2041 25.8406 13.2381 26.1657C13.3787 26.2099 13.5245 26.2557 13.6739 26.3043C14.6911 26.635 16.0596 27.0218 16.7709 27.0372C17.4162 27.0511 18.1365 26.7851 18.9316 26.2391C24.3584 22.5759 27.1597 20.7243 27.3356 20.6844C27.4597 20.6562 27.6316 20.6208 27.7481 20.7244C27.8646 20.8279 27.8532 21.024 27.8408 21.0766C27.7656 21.3973 24.785 24.1683 23.2426 25.6023C22.7617 26.0493 22.4207 26.3664 22.3509 26.4388C22.1947 26.6011 22.0355 26.7545 21.8826 26.902C20.9375 27.8131 20.2288 28.4963 21.9218 29.612C22.7354 30.1481 23.3864 30.5915 24.0359 31.0338C24.7452 31.5168 25.4527 31.9986 26.3681 32.5987C26.6013 32.7516 26.8241 32.9103 27.041 33.065C27.8665 33.6535 28.6081 34.1822 29.5244 34.0979C30.0567 34.0489 30.6067 33.5483 30.886 32.0552C31.546 28.5267 32.8434 20.8814 33.1432 17.731C33.1695 17.455 33.1365 17.1017 33.1099 16.9467C33.0834 16.7916 33.0279 16.5707 32.8264 16.4071C32.5877 16.2134 32.2191 16.1726 32.0543 16.1755C31.3049 16.1887 30.1552 16.5884 24.6222 18.8898Z" fill="white"/>
</svg>
