<svg width="49" height="49" viewBox="0 0 49 49" fill="none" xmlns="http://www.w3.org/2000/svg">
<path d="M24.4774 6.75244C14.6347 6.75244 6.62457 14.4676 6.6211 23.9493C6.61878 26.9814 7.44247 29.9407 9.00424 32.5471L6.4707 41.4585L15.9374 39.0672C18.5706 40.4447 21.4986 41.1632 24.4704 41.1612H24.4774C34.32 41.1612 42.3301 33.4449 42.3336 23.9632C42.3359 19.3704 40.4803 15.0472 37.108 11.7975C33.7369 8.54674 29.2541 6.7536 24.4774 6.75244ZM24.4774 38.2563H24.4716C21.8085 38.2563 19.1963 37.5668 16.9172 36.2642L16.3735 35.9541L10.7581 37.3724L12.2574 32.0971L11.9045 31.5569C10.4225 29.2965 9.6335 26.6522 9.63474 23.9493C9.63821 16.0675 16.2971 9.65734 24.4831 9.65734C28.4466 9.65849 32.1728 11.1474 34.9759 13.8487C37.779 16.55 39.3211 20.142 39.3188 23.962C39.3153 31.8438 32.6576 38.2563 24.4762 38.2563H24.4774ZM32.6182 27.5495C32.1717 27.3354 29.9783 26.2954 29.5687 26.1508C29.1604 26.0085 28.863 25.9345 28.5657 26.3648C28.2696 26.7952 27.4135 27.7635 27.1543 28.0492C26.8929 28.3361 26.6326 28.3708 26.186 28.1568C25.7395 27.9416 24.3015 27.4881 22.5986 26.0236C21.2717 24.8852 20.3763 23.4784 20.116 23.0469C19.8557 22.6177 20.0882 22.3852 20.3115 22.1712C20.5116 21.9803 20.758 21.6703 20.9801 21.4192C21.2023 21.1682 21.2763 20.9889 21.4267 20.702C21.5748 20.4162 21.5007 20.164 21.3885 19.95C21.2763 19.7337 20.3855 17.6189 20.0118 16.7594C19.6509 15.9218 19.283 16.034 19.0088 16.0201C18.7485 16.0085 18.4524 16.0051 18.1528 16.0051C17.8578 16.0051 17.373 16.1127 16.9635 16.543C16.5551 16.9734 15.4017 18.0122 15.4017 20.127C15.4017 22.2429 17.0005 24.2859 17.2238 24.5728C17.4471 24.8586 20.3705 29.2003 24.8464 31.0629C25.9107 31.5036 26.7413 31.7686 27.3903 31.9675C28.4593 32.2949 29.4322 32.2475 30.2004 32.1376C31.0565 32.0138 32.8404 31.0987 33.2106 30.0957C33.5831 29.0927 33.5831 28.232 33.472 28.0527C33.3633 27.8734 33.0648 27.7658 32.6182 27.5495Z" fill="white"/>
</svg>
