<svg width="49" height="49" viewBox="0 0 49 49" fill="none" xmlns="http://www.w3.org/2000/svg">
<path fill-rule="evenodd" clip-rule="evenodd" d="M40.4193 10.9846C42.1329 11.445 43.4884 12.8006 43.9488 14.5141C44.7928 17.6344 44.8184 24.1052 44.8184 24.1052C44.8184 24.1052 44.8184 30.6016 43.9744 33.6963C43.514 35.4099 42.1585 36.7654 40.4449 37.2258C37.3501 38.0698 24.8945 38.0698 24.8945 38.0698C24.8945 38.0698 12.4389 38.0698 9.34423 37.2258C7.63062 36.7654 6.27509 35.4099 5.81472 33.6963C4.9707 30.576 4.9707 24.1052 4.9707 24.1052C4.9707 24.1052 4.9707 17.6344 5.78914 14.5397C6.24951 12.8261 7.60505 11.4706 9.31865 11.0102C12.4134 10.1662 24.869 10.1406 24.869 10.1406C24.869 10.1406 37.3246 10.1406 40.4193 10.9846ZM31.2374 24.1052L20.9047 30.09V18.1204L31.2374 24.1052Z" fill="white"/>
</svg>
